<svg width="79" height="26" viewBox="0 0 79 26" fill="none" xmlns="http://www.w3.org/2000/svg">
<g clip-path="url(#clip0_39_17)">
<path d="M6.76 1C5.23489 1.00263 3.77286 1.60896 2.69351 2.68644C1.61415 3.76392 1.00528 5.2249 1 6.75V25.27H72.18C73.7068 25.2647 75.1693 24.6545 76.2471 23.573C77.3248 22.4914 77.93 21.0268 77.93 19.5V1H6.76Z" fill="url(#paint0_linear_39_17)"/>
<path d="M6.76 1C5.23489 1.00263 3.77286 1.60896 2.69351 2.68644C1.61415 3.76392 1.00528 5.2249 1 6.75V25.27H72.18C73.7068 25.2647 75.1693 24.6545 76.2471 23.573C77.3248 22.4914 77.93 21.0268 77.93 19.5V1H6.76Z" stroke="url(#paint1_linear_39_17)" stroke-linecap="round" stroke-linejoin="round"/>
<path d="M13.8298 13.1395C14.1189 13.1194 14.4006 13.0395 14.6572 12.9048C14.9137 12.77 15.1394 12.5834 15.3199 12.3568C15.5005 12.1302 15.6319 11.8685 15.7059 11.5883C15.78 11.3082 15.7949 11.0157 15.7498 10.7295C15.2098 5.14949 7.37985 7.36949 7.37985 7.36949C7.37985 7.36949 6.97985 18.7295 7.12985 19.0295C7.27985 19.3295 16.2898 20.1095 16.1298 16.8195C15.9998 13.7895 13.8298 13.1395 13.8298 13.1395ZM9.82985 9.21949C9.82985 9.21949 13.1598 9.51949 13.0198 10.7395C12.8798 11.9595 9.82985 12.3295 9.82985 12.3295V9.21949ZM9.82985 16.8295V14.5495C9.82985 14.5495 13.3398 14.3795 13.3398 15.6895C13.2998 16.6595 9.78985 16.8295 9.78985 16.8295H9.82985Z" fill="white"/>
<path d="M23.18 7.37079C22.95 7.37079 23.05 15.8208 23.03 16.0008C22.84 17.2608 20.19 17.1608 20.03 16.0708C20.03 15.7908 19.75 7.51079 19.6 7.37079C18.7288 7.29153 17.8504 7.35572 17 7.56079C17 7.56079 17.05 15.2208 17.61 17.4408C18.17 19.6608 24.47 19.6708 25.08 17.6908C25.69 15.7108 25.77 7.86079 25.72 7.59079C25.67 7.32079 23.41 7.37079 23.18 7.37079Z" fill="white"/>
<path d="M33.4101 7.49992L31.2201 11.7299L28.5001 7.41992C27.6618 7.93011 26.8718 8.51588 26.1401 9.16992L29.4901 13.6499L29.6601 19.0799H32.9001L32.6801 13.6999L35.6801 8.58992L33.4101 7.49992Z" fill="white"/>
<path d="M45.4999 16.4407C45.4999 16.4407 41.2899 9.78065 40.8699 7.44065C40.8699 7.20065 38.9999 7.44065 38.4699 7.44065C37.9399 7.44065 38.7199 18.6007 38.7699 19.1007C39.7388 19.1657 40.711 19.1657 41.6799 19.1007C41.6939 17.6985 41.6338 16.2965 41.4999 14.9007L44.7299 19.0907C44.7299 19.0907 47.4599 19.1707 47.7299 19.0907C47.9999 19.0107 48.3999 7.43065 48.3999 7.43065H45.1799C45.0399 7.43065 45.4999 16.4407 45.4999 16.4407Z" fill="white"/>
<path d="M53.5002 7C50.5602 7 49.2002 10.49 49.2002 13.94C49.2002 17.39 50.4802 19.39 54.8102 19.27C58.2502 19.17 58.8902 15.27 58.5702 12.07C58.2002 8.64 56.4102 7 53.5002 7ZM55.8702 13.29C55.7502 15.11 55.1602 16.87 53.8702 16.84C52.0802 16.79 51.7002 15.68 51.7002 13.21C51.7002 11.57 52.4102 9.42 53.6202 9.21C55.1002 9.06 55.9902 11.05 55.8402 13.29H55.8702Z" fill="white"/>
<path d="M71.8298 7.80914C70.7645 7.68395 69.6923 7.62716 68.6198 7.63914C68.4898 7.75914 67.7198 16.1891 67.7198 16.1891C67.7198 16.1891 66.5898 8.35914 66.7198 8.33914C66.6398 8.33914 64.3398 8.33914 64.3398 8.33914L63.5398 16.0391C63.5398 16.0391 62.0898 7.49914 61.9598 7.36914C61.0298 7.40072 60.1037 7.50437 59.1898 7.67914C58.8698 8.51914 61.4298 18.8291 61.4298 18.8291L64.2998 18.9891C64.7551 18.3163 65.1725 17.6186 65.5498 16.8991C65.5498 16.8991 66.4898 18.3891 66.9798 18.9691L69.8598 18.8291C69.8598 18.8291 71.9898 8.49914 71.8298 7.80914Z" fill="white"/>
<path d="M14.2602 12.5002C14.549 12.4803 14.8304 12.4004 15.0865 12.2656C15.3426 12.1307 15.5677 11.9439 15.7475 11.7171C15.9273 11.4902 16.0577 11.2284 16.1305 10.9482C16.2033 10.6681 16.2168 10.3759 16.1702 10.0902C15.6402 4.50021 7.81023 6.70021 7.81023 6.70021C7.81023 6.70021 7.41023 18.0602 7.55023 18.3602C7.69023 18.6602 16.7202 19.4402 16.5502 16.1502C16.4202 13.1202 14.2602 12.5002 14.2602 12.5002ZM10.2602 8.58021C10.2602 8.58021 13.5902 8.88021 13.4602 10.1002C13.3302 11.3202 10.2602 11.6902 10.2602 11.6902V8.58021ZM10.2602 16.1902V13.8802C10.2602 13.8802 13.7702 13.7102 13.7702 15.0202C13.7202 15.9902 10.2102 16.1602 10.2102 16.1602L10.2602 16.1902Z" fill="#A5238B"/>
<path d="M23.5999 6.70011C23.3799 6.70011 23.4799 15.1501 23.4499 15.3301C23.2599 16.5901 20.6199 16.4901 20.4499 15.4101C20.3999 15.1201 20.1699 6.84011 20.0199 6.70011C19.1487 6.62542 18.2711 6.68955 17.4199 6.89011C17.4199 6.89011 17.4699 14.5501 18.0299 16.7701C18.5899 18.9901 24.8799 19.0001 25.4899 17.0201C26.0999 15.0401 26.1799 7.19011 26.1299 6.92011C26.0799 6.65011 23.8299 6.70011 23.5999 6.70011Z" fill="#A5238B"/>
<path d="M33.83 6.79L31.65 11.02L28.88 6.75C28.0347 7.25916 27.238 7.84496 26.5 8.5L29.84 12.98L30.02 18.41H33.3L33.09 13.03L36.09 7.93L33.83 6.79Z" fill="#A5238B"/>
<path d="M45.94 15.7707C45.94 15.7707 41.7401 9.12073 41.3101 6.77073C41.3101 6.53073 39.45 6.77073 38.92 6.77073C38.39 6.77073 39.1601 17.9307 39.2201 18.4307C40.189 18.4958 41.1611 18.4958 42.1301 18.4307C42.1204 17.034 42.037 15.6387 41.8801 14.2507L45.1101 18.4307C45.1101 18.4307 47.84 18.5107 48.05 18.4307C48.26 18.3507 48.7301 6.77073 48.7301 6.77073H45.6C45.5 6.76073 45.94 15.7707 45.94 15.7707Z" fill="#A5238B"/>
<path d="M53.8901 6.33008C50.9501 6.33008 49.6001 9.82008 49.6001 13.2701C49.6001 16.7201 50.8701 18.7201 55.2001 18.6001C58.6401 18.5001 59.2801 14.5501 58.9701 11.4001C58.6201 7.97008 56.8301 6.33008 53.8901 6.33008ZM56.2701 12.6201C56.1501 14.4401 55.5601 16.2001 54.2701 16.1701C52.5001 16.1201 52.1201 15.0101 52.1201 12.5001C52.1201 10.8601 52.8301 8.71008 54.0301 8.55008C55.5001 8.39008 56.4101 10.3801 56.2701 12.6201Z" fill="#A5238B"/>
<path d="M72.2601 7.13922C71.1948 7.0143 70.1226 6.95751 69.0501 6.96922C68.9101 7.08922 68.1501 15.5192 68.1501 15.5192C68.1501 15.5192 67.0101 7.68922 67.1501 7.66922C67.0601 7.66922 64.7601 7.66922 64.7601 7.66922L63.9601 15.3692C63.9601 15.3692 62.5001 6.81922 62.3901 6.69922C61.4601 6.7304 60.5339 6.83405 59.6201 7.00922C59.3001 7.84922 61.8501 18.1592 61.8501 18.1592L64.7301 18.3192C65.1854 17.6464 65.6027 16.9487 65.9801 16.2292C66.421 16.9432 66.8983 17.6342 67.4101 18.2992L70.2801 18.1592C70.2801 18.1592 72.4201 7.78922 72.2601 7.13922Z" fill="#A5238B"/>
</g>
<defs>
<linearGradient id="paint0_linear_39_17" x1="39.46" y1="25.26" x2="39.46" y2="1" gradientUnits="userSpaceOnUse">
<stop stop-color="#72BF4A"/>
<stop offset="0.06" stop-color="#8BC740"/>
<stop offset="0.16" stop-color="#B1D431"/>
<stop offset="0.27" stop-color="#CFDE25"/>
<stop offset="0.37" stop-color="#E5E51D"/>
<stop offset="0.47" stop-color="#F2EA18"/>
<stop offset="0.56" stop-color="#F6EB16"/>
<stop offset="0.63" stop-color="#F2EA18"/>
<stop offset="0.71" stop-color="#E5E51D"/>
<stop offset="0.79" stop-color="#D0DE25"/>
<stop offset="0.87" stop-color="#B2D431"/>
<stop offset="0.95" stop-color="#8CC840"/>
<stop offset="1" stop-color="#72BF4A"/>
</linearGradient>
<linearGradient id="paint1_linear_39_17" x1="0.5" y1="13.13" x2="78.44" y2="13.13" gradientUnits="userSpaceOnUse">
<stop stop-color="#72BF4A"/>
<stop offset="0.06" stop-color="#8BC740"/>
<stop offset="0.16" stop-color="#B1D431"/>
<stop offset="0.27" stop-color="#CFDE25"/>
<stop offset="0.37" stop-color="#E5E51D"/>
<stop offset="0.47" stop-color="#F2EA18"/>
<stop offset="0.56" stop-color="#F6EB16"/>
<stop offset="0.63" stop-color="#F2EA18"/>
<stop offset="0.71" stop-color="#E5E51D"/>
<stop offset="0.79" stop-color="#D0DE25"/>
<stop offset="0.87" stop-color="#B2D431"/>
<stop offset="0.95" stop-color="#8CC840"/>
<stop offset="1" stop-color="#72BF4A"/>
</linearGradient>
<clipPath id="clip0_39_17">
<rect width="79" height="26" fill="white"/>
</clipPath>
</defs>
</svg>
