<svg xmlns="http://www.w3.org/2000/svg" viewBox="0 0 35.09 7.87"><defs><style>.cls-1{fill:#050606;}.cls-2{fill:none;stroke:#ed1e24;stroke-miterlimit:10;stroke-width:0.5px;}</style></defs><g id="Layer_2" data-name="Layer 2"><g id="Layer_1-2" data-name="Layer 1"><path class="cls-1" d="M3.13,1.43a3.24,3.24,0,0,1,1.66.4,2.56,2.56,0,0,1,1,1.11,3.77,3.77,0,0,1,.36,1.7A4.14,4.14,0,0,1,6,6a2.69,2.69,0,0,1-.58,1,2.64,2.64,0,0,1-1,.67,3.56,3.56,0,0,1-1.31.23,3.35,3.35,0,0,1-1.3-.24A2.69,2.69,0,0,1,.88,7a3,3,0,0,1-.58-1A4.28,4.28,0,0,1,.1,4.63,3.91,3.91,0,0,1,.31,3.32a2.73,2.73,0,0,1,.6-1,2.42,2.42,0,0,1,1-.64A3.34,3.34,0,0,1,3.13,1.43Zm1.79,3.2A2.86,2.86,0,0,0,4.7,3.45a1.7,1.7,0,0,0-.63-.76,1.75,1.75,0,0,0-.94-.26,1.63,1.63,0,0,0-.7.15A1.47,1.47,0,0,0,1.88,3a1.89,1.89,0,0,0-.37.69,3.52,3.52,0,0,0-.13.95,3.48,3.48,0,0,0,.13,1,2,2,0,0,0,.38.71,1.5,1.5,0,0,0,.56.42,1.59,1.59,0,0,0,.7.14A1.75,1.75,0,0,0,4,6.62a1.74,1.74,0,0,0,.64-.74A2.93,2.93,0,0,0,4.92,4.63Z"/><path class="cls-1" d="M9.38,6.82l-1-4V7.15a.77.77,0,0,1-.16.54.58.58,0,0,1-.84,0,.77.77,0,0,1-.16-.54V2.23a.63.63,0,0,1,.21-.55A1.06,1.06,0,0,1,8,1.54h.38a1.63,1.63,0,0,1,.52.06.47.47,0,0,1,.23.23,4.13,4.13,0,0,1,.18.54l.9,3.41.9-3.41a4.13,4.13,0,0,1,.18-.54.47.47,0,0,1,.23-.23A1.6,1.6,0,0,1,12,1.54h.39a1.06,1.06,0,0,1,.58.14.63.63,0,0,1,.21.55V7.15a.77.77,0,0,1-.16.54.55.55,0,0,1-.43.18.54.54,0,0,1-.41-.18.83.83,0,0,1-.16-.54V2.86l-1,4q-.09.39-.15.57a.9.9,0,0,1-.23.33.65.65,0,0,1-.46.15.7.7,0,0,1-.37-.1.69.69,0,0,1-.24-.24,1.64,1.64,0,0,1-.14-.33Z"/><path class="cls-1" d="M16.21,5.1h-.45v2a.82.82,0,0,1-.17.58.62.62,0,0,1-.45.19.59.59,0,0,1-.47-.2.86.86,0,0,1-.16-.57V2.31a.82.82,0,0,1,.18-.59.82.82,0,0,1,.59-.18h2a5,5,0,0,1,.72,0,1.78,1.78,0,0,1,.54.14,1.54,1.54,0,0,1,.52.35,1.46,1.46,0,0,1,.34.54,1.69,1.69,0,0,1,.12.64,1.57,1.57,0,0,1-.39,1.11A2.26,2.26,0,0,1,18,5a2.2,2.2,0,0,1,.64.53,5.6,5.6,0,0,1,.54.74,5,5,0,0,1,.38.71,1.31,1.31,0,0,1,.13.43.38.38,0,0,1-.08.24.51.51,0,0,1-.21.2.79.79,0,0,1-.32.07.63.63,0,0,1-.35-.1.89.89,0,0,1-.25-.26c-.07-.1-.16-.25-.28-.45l-.51-.84a4.56,4.56,0,0,0-.48-.7,1.27,1.27,0,0,0-.44-.33A1.44,1.44,0,0,0,16.21,5.1Zm.72-2.61H15.76V4.2h1.13a3.31,3.31,0,0,0,.77-.08.94.94,0,0,0,.47-.27.77.77,0,0,0,.16-.52.8.8,0,0,0-.13-.46.79.79,0,0,0-.36-.29A2.74,2.74,0,0,0,16.93,2.49Z"/><path class="cls-1" d="M23.83,4.39a2,2,0,0,1,.63-.5,1.73,1.73,0,0,1,.76-.17,1.86,1.86,0,0,1,.75.15,1.76,1.76,0,0,1,.59.43A1.87,1.87,0,0,1,27,5a2.39,2.39,0,0,1,.14.79,2.23,2.23,0,0,1-.27,1.09,1.94,1.94,0,0,1-.77.76A2.23,2.23,0,0,1,25,7.87a2.05,2.05,0,0,1-2-1.38,4.53,4.53,0,0,1-.27-1.67,5.69,5.69,0,0,1,.16-1.43,3,3,0,0,1,.48-1.05,1.9,1.9,0,0,1,.75-.63,2.29,2.29,0,0,1,1-.21,2.06,2.06,0,0,1,1,.21,1.59,1.59,0,0,1,.63.53,1.16,1.16,0,0,1,.2.6.45.45,0,0,1-.13.32.44.44,0,0,1-.33.14.57.57,0,0,1-.33-.11.72.72,0,0,1-.23-.31.85.85,0,0,0-.31-.41A.76.76,0,0,0,25,2.31a.86.86,0,0,0-.45.13,1.12,1.12,0,0,0-.37.35A3.24,3.24,0,0,0,23.83,4.39ZM25,7a.89.89,0,0,0,.71-.35A1.46,1.46,0,0,0,26,5.76a1.62,1.62,0,0,0-.13-.66,1,1,0,0,0-.37-.43,1,1,0,0,0-.5-.14.9.9,0,0,0-.5.14,1,1,0,0,0-.39.4,1.26,1.26,0,0,0-.15.62,1.51,1.51,0,0,0,.3,1A.93.93,0,0,0,25,7Z"/><path class="cls-1" d="M28.79,7.87a.69.69,0,0,1-.46-.17.66.66,0,0,1-.19-.48.58.58,0,0,1,.19-.44.58.58,0,0,1,.45-.19.63.63,0,0,1,.45.18.61.61,0,0,1,.19.45.58.58,0,0,1-.19.47A.6.6,0,0,1,28.79,7.87Z"/><path class="cls-1" d="M31.5,1.6h2.82a1,1,0,0,1,.59.13.47.47,0,0,1,.18.42,1,1,0,0,1-.21.47l-.49.64a7.14,7.14,0,0,0-.56.88,7.27,7.27,0,0,0-.54,1.29c-.06.22-.11.41-.14.56s-.06.33-.09.57L33,7.1a1.31,1.31,0,0,1-.25.6.6.6,0,0,1-.44.17.54.54,0,0,1-.42-.18.83.83,0,0,1-.15-.54,3.76,3.76,0,0,1,.11-.74A8.17,8.17,0,0,1,32.2,5.3,10.13,10.13,0,0,1,32.84,4a10.27,10.27,0,0,1,.93-1.36H31.5A1,1,0,0,1,31,2.47a.51.51,0,0,1-.17-.41A.39.39,0,0,1,31,1.68,1.48,1.48,0,0,1,31.5,1.6Z"/><line class="cls-2" x1="0.05" y1="0.25" x2="34.85" y2="7.19"/></g></g></svg>